<svg id="Layer_1" data-name="Layer 1" xmlns="http://www.w3.org/2000/svg" viewBox="0 0 405.23 402.15"><defs><style>.cls-1{fill:#951b1e;}.cls-2{fill:#5f6161;fill-rule:evenodd;}</style></defs><title>BeoraIcon</title><circle class="cls-1" cx="200.97" cy="200.43" r="90.49"/><path class="cls-2" d="M622.2,199.41c-31.73,10.26-21.72,54.29,12.8,49.82,118.15-24.77,208.77,93.22,170.2,196.94-50.89,124.75-211.07,127.52-271.64,23.91-19-31.57-23.59-67-18-99.52,4.72-30.36-48.14-46.71-53.64-2.91-6.33,41.75,6.14,90.1,25,124.12,35.31,75.58,131.17,114.34,205.21,101.72,70.23-8.82,131.35-54.88,158-121.72C910.08,329.3,786.31,160.36,622.2,199.41Z" transform="translate(-460.29 -193.7)"/></svg>