<svg id="Layer_1" data-name="Layer 1" xmlns="http://www.w3.org/2000/svg" viewBox="0 0 1877.31 514.37"><defs><style>.cls-1,.cls-3{fill:#5f6161;}.cls-2{fill:#951b1e;}.cls-3{fill-rule:evenodd;}</style></defs><title>LogoOriginal</title><path class="cls-1" d="M271.11,173.22a183.72,183.72,0,0,1,76,16.19A209.4,209.4,0,0,1,454.22,297a195.52,195.52,0,0,1,.42,154.87,208.73,208.73,0,0,1-42.76,63.53,198.8,198.8,0,0,1-63.53,43.18q-36.54,15.78-78.89,15.78-44.84,0-83-17a196.29,196.29,0,0,1-65.6-46.92c-17.44-20-44.45-57.74-51.49-121.42V86.51A25.53,25.53,0,0,1,95.07,60.77a25.52,25.52,0,0,1,25.74,25.74V248.79q27.4-29.89,65.6-51.9t84.7-23.67ZM120.81,381.65a134.78,134.78,0,0,0,13.29,55.64,155,155,0,0,0,32.39,44.84A151.7,151.7,0,0,0,213,512.44a143.76,143.76,0,0,0,56.47,11.21A147.34,147.34,0,0,0,327.58,512a149.08,149.08,0,0,0,79.72-79.31A144.35,144.35,0,0,0,418.93,375a147.3,147.3,0,0,0-11.62-58.13,148,148,0,0,0-79.72-79.72,147.28,147.28,0,0,0-58.13-11.63,145,145,0,0,0-103,42.35,159.58,159.58,0,0,0-32.39,47.33Q121.64,342.63,120.81,375Z" transform="translate(-69.32 -60.77)"/><path class="cls-1" d="M542.4,398.26a140.44,140.44,0,0,0,17.44,49.41,149.81,149.81,0,0,0,77.23,65.6,150.12,150.12,0,0,0,109.61-1.66A154.5,154.5,0,0,0,794,480.47,25.84,25.84,0,0,1,830.55,517q-27.4,30.73-61.86,43.6t-79.31,12.87q-41.52,0-77.64-14.95A200.33,200.33,0,0,1,548.21,517,194,194,0,0,1,505,453.9q-15.78-36.54-15.78-79.72,0-41.52,15.36-77.64A197.67,197.67,0,0,1,547,233.43a206.77,206.77,0,0,1,63.94-43.18q37-16.19,80.13-17.85a182.09,182.09,0,0,1,75.15,15.78,215.93,215.93,0,0,1,62.69,42.35A203.92,203.92,0,0,1,890.34,369.2q1.66,14.12-7.06,21.59t-18.69,7.47Zm147-173.55a141.65,141.65,0,0,0-51.9,9.55,158.65,158.65,0,0,0-44,25.74,140.75,140.75,0,0,0-32.38,38.61,155.3,155.3,0,0,0-17.85,48.16H836.36a149.47,149.47,0,0,0-18.27-48.16A147.34,147.34,0,0,0,785.29,260a158.6,158.6,0,0,0-44-25.74A141.67,141.67,0,0,0,689.38,224.71Z" transform="translate(-69.32 -60.77)"/><path class="cls-1" d="M1402.71,237.16a199.75,199.75,0,0,1,63.94-47.75Q1504,171.56,1548,170.73q13.28,0,21.17,7.47a25.09,25.09,0,0,1,0,36.54q-7.89,7.48-21.17,7.47a143.49,143.49,0,0,0-55.64,12.46,155.65,155.65,0,0,0-45.25,30.72,152.42,152.42,0,0,0-31.55,44.84A137.11,137.11,0,0,0,1402.71,365V548.56a25.74,25.74,0,1,1-51.48,0V350.88C1351.23,321.4,1368.2,271.68,1402.71,237.16Z" transform="translate(-69.32 -60.77)"/><path class="cls-1" d="M1747.33,172.39a183.63,183.63,0,0,1,76,16.2,209.34,209.34,0,0,1,107.12,107.53,190.48,190.48,0,0,1,16.2,78.06V549.39a25.74,25.74,0,1,1-51.48,0V498.74q-27.4,30.73-66,52.73a165.72,165.72,0,0,1-83.45,22q-41.52,0-77.64-14.95A200.34,200.34,0,0,1,1604.51,517a194,194,0,0,1-43.18-63.11q-15.77-36.54-15.78-79.72a202.45,202.45,0,0,1,15.36-78.47,200.29,200.29,0,0,1,42.35-64.36,197.59,197.59,0,0,1,63.95-43.18q36.95-15.77,80.13-15.78ZM1597,374.18a144.29,144.29,0,0,0,11.62,57.72A150.18,150.18,0,0,0,1688,511.2a148.45,148.45,0,0,0,114.18.41,149.45,149.45,0,0,0,46.91-31.14,151.16,151.16,0,0,0,32.38-46.92q12-27,13.71-59.38a147.36,147.36,0,0,0-11.63-58.13,148,148,0,0,0-79.72-79.72,147.32,147.32,0,0,0-58.13-11.63A144.32,144.32,0,0,0,1688,236.34a149.08,149.08,0,0,0-79.31,79.72A147.25,147.25,0,0,0,1597,374.18Z" transform="translate(-69.32 -60.77)"/><circle class="cls-2" cx="1048.93" cy="310.36" r="90.49"/><path class="cls-3" d="M1079.2,176.41c-31.73,10.26-21.72,54.29,12.8,49.82,118.15-24.77,208.77,93.22,170.2,196.94-50.89,124.75-211.07,127.52-271.64,23.91-19-31.57-23.59-67-18-99.52,4.72-30.36-48.14-46.71-53.64-2.91-6.33,41.75,6.14,90.1,25,124.12,35.31,75.58,131.17,114.34,205.21,101.72,70.23-8.82,131.35-54.88,158-121.72C1367.08,306.3,1243.31,137.36,1079.2,176.41Z" transform="translate(-69.32 -60.77)"/></svg>